<svg width="1080" height="1080" viewBox="0 0 1080 1080" fill="none" xmlns="http://www.w3.org/2000/svg">
<rect width="1080" height="1080" rx="540" fill="white"/>
<path d="M723.986 454.662C727.246 454.429 730.256 454.394 733.406 455.39C736.836 456.475 740.046 459.22 741.546 462.525C744.066 468.064 743.916 588.215 741.426 594.236C740.196 597.199 737.196 599.802 734.296 601.117C730.756 602.721 725.886 602.809 722.286 601.181C717.756 599.13 715.976 594.26 714.476 589.92C697.526 606.315 679.386 606.492 658.986 596.444C655.336 593.997 650.486 590.066 647.496 586.945C637.166 576.254 631.656 561.805 632.246 546.95C632.766 531.983 639.226 517.84 650.186 507.635C668.726 490.646 696.596 488.871 714.086 508.313C713.726 495.656 712.466 478.776 714.506 466.495C715.516 460.359 719.066 457.708 723.986 454.662Z" fill="#142545"/>
<path d="M684.425 522.121C698.965 520.189 712.365 530.254 714.565 544.751C716.765 559.247 706.955 572.836 692.495 575.304C682.905 576.942 673.175 573.273 667.055 565.71C660.935 558.148 659.375 547.869 662.975 538.831C666.585 529.792 674.785 523.403 684.425 522.121Z" fill="white"/>
<path d="M312.042 510.207C312.757 509.366 313.498 508.549 314.265 507.755C330 491.369 353.827 489.465 370.959 505.386C381.374 515.065 382.864 531.261 382.722 544.634C383.232 556.815 381.62 572.455 382.376 584.215C383.019 594.214 376.054 604.151 366.558 602.371C338.646 595.989 364.905 543.838 348.636 526.368C342.511 519.789 331.703 519.353 325.161 525.505C323.781 526.803 320.669 530.836 320.538 532.732C319.266 551.203 319.799 570.173 319.832 588.745C319.042 593.397 318.246 596.027 314.444 599.256C311.143 602.059 307.41 602.773 303.326 602.424C278.043 600.265 300.066 541.136 285.942 525.704C283.307 522.824 280.09 521.267 276.187 521.248C270.605 521.22 265.26 522.222 261.163 526.202C258.791 528.523 257.172 531.505 256.516 534.758C255.436 539.916 255.873 583.159 255.88 591.832C250.617 599.714 246.89 604.745 236.331 601.836C233.919 601.172 227.883 596.233 227.678 593.844C225.176 564.69 225.783 533.084 227.478 503.82C227.835 498.009 248.63 486.95 255.289 507.537C262.701 499.978 266.769 497.211 276.951 494.85C293.161 494.199 302.27 496.807 312.042 510.207Z" fill="#142545"/>
<path d="M443.345 494.551C473.315 490.971 500.525 512.326 504.165 542.286C507.815 572.245 486.515 599.502 456.565 603.213C426.525 606.935 399.165 585.559 395.505 555.507C391.848 525.454 413.285 498.142 443.345 494.551Z" fill="#142545"/>
<path d="M444.035 523.047C458.255 519.878 472.345 528.839 475.515 543.06C478.675 557.282 469.715 571.376 455.495 574.538C441.275 577.699 427.185 568.738 424.025 554.522C420.855 540.305 429.815 526.215 444.035 523.047Z" fill="white"/>
<path d="M561.945 494.602C591.825 490.92 619.055 512.122 622.795 541.996C626.545 571.871 605.405 599.141 575.535 602.954C545.575 606.779 518.205 585.557 514.445 555.59C510.685 525.623 531.965 498.296 561.945 494.602Z" fill="#142545"/>
<path d="M562.526 523.063C576.796 519.609 591.146 528.456 594.466 542.756C597.786 557.056 588.796 571.317 574.466 574.502C560.326 577.644 546.296 568.807 543.026 554.696C539.746 540.585 548.456 526.471 562.526 523.063Z" fill="white"/>
<path d="M765.076 495.539C768.576 495.38 772.236 494.994 775.476 496.587C785.236 501.382 801.026 551.743 805.576 563.931C809.096 553.066 824.836 498 835.166 496.329C867.056 491.168 849.096 524.98 843.436 539.08L825.006 584.854C817.706 604.044 809.106 629.764 788.906 638.565C783.306 641.003 775.966 642.378 770.146 639.884C767.056 638.567 764.646 636.053 763.446 632.919C757.246 616.519 776.066 615.338 783.976 607.693C786.896 604.87 789.096 600.111 790.936 596.432C786.086 583.112 751.626 513.139 754.626 504.527C756.206 500.023 761.126 497.564 765.076 495.539Z" fill="#142545"/>
<path d="M440.336 454.737C469.636 450.868 482.296 462.792 504.496 477.408C509.726 480.853 522.496 476.158 522.976 489.498C518.386 504.515 502.296 498.747 492.906 492.575C482.516 485.75 475.116 478.377 462.856 474.807C426.916 466.769 423.826 488.51 394.124 498.166C379.302 503.717 371.07 481.4 388.346 479.358C401.546 477.797 413.076 463.876 425.296 458.945C431.026 456.631 434.466 455.858 440.336 454.737Z" fill="#142545"/>
</svg>
